Dip1990

		

300 [2006] [Dual-Audio] [English+Hindi]_Dip1990
   
General
      Complete name : 300 [2006] [Dual-Audio] [English+Hindi]_Dip1990.mkv
      IMDB Rating : 7.8/10   218,403 votes 
      Release Date : 21 December 2009
      Format : Matroska
      File size : 1.98 GiB
      Duration : 1h 56mn
      Overall bit rate : 2 429 Kbps
      Encoded date : UTC 2010-07-14 13:33:02
      Writing application : mkvmerge v4.1.1 ('Bouncin' Back') built on Jul  3 2010 22:54:08
      Writing library : libebml v1.0.0 + libmatroska v1.0.0
   
Video #1
      ID : 1
      Format : AVC
      Format/Info : Advanced Video Codec
      Format profile : High@L4.1
      Format settings, CABAC : Yes
      Format settings, ReFrames : 6 frames
      Muxing mode : Container profile=Unknown@4.1
      Codec ID : V_MPEG4/ISO/AVC
      Duration : 1h 56mn
      Bit rate : 2 045 Kbps
      Nominal bit rate : 2 135 Kbps
      Width : 1 280 pixels
      Height : 544 pixels
      Display aspect ratio : 2.35:1
      Frame rate : 23.976 fps
      Resolution : 24 bits
      Colorimetry : 4:2:0
      Scan type : Progressive
      Bits/(Pixel*Frame) : 0.123
      Stream size : 1.66 GiB (84%)
      Title : 300
      Writing library : x264 core 80 r1376M 3feaec2
      Encoding settings : cabac=1 / ref=6 / deblock=1:-1:-1 / analyse=0x3:0x113 / me=umh / subme=9 / psy=1 / psy_rd=1.0:1.0 / mixed_ref=1 / me_range=16 / chroma_me=1 / trellis=2 / 8x8dct=1 / cqm=0 / deadzone=21,11 / fast_pskip=1 / chroma_qp_offset=-4 / threads=3 / sliced_threads=0 / slices=3 / nr=0 / decimate=1 / mbaff=0 / constrained_intra=0 / bframes=3 / b_pyramid=0 / b_adapt=2 / b_bias=0 / direct=1 / wpredb=1 / wpredp=2 / keyint=300 / keyint_min=1 / scenecut=54 / rc_lookahead=60 / rc=2pass / mbtree=1 / bitrate=2135 / ratetol=1.0 / qcomp=0.60 / qpmin=10 / qpmax=51 / qpstep=4 / cplxblur=20.0 / qblur=0.5 / vbv_maxrate=40000 / vbv_bufsize=30000 / ip_ratio=1.40 / aq=1:1.00
   
Audio #2
      ID : 2
      Format : Vorbis
      Format settings, Floor : 1
      Codec ID : A_VORBIS
      Duration : 1h 56mn
      Bit rate mode : Constant
      Bit rate : 112 Kbps
      Channel(s) : 2 channels
      Sampling rate : 48.0 KHz
      Stream size : 93.2 MiB (5%)
      Title : 300 - English
      Writing library : aoTuV b5a  (UTC 2008-03-30)
   
Audio #3
      ID : 3
      Format : Vorbis
      Format settings, Floor : 1
      Codec ID : A_VORBIS
      Duration : 1h 56mn
      Bit rate mode : Constant
      Bit rate : 224 Kbps
      Channel(s) : 2 channels
      Sampling rate : 48.0 KHz
      Stream size : 186 MiB (9%)
      Title : 300 - Hindi
      Writing library : aoTuV b5a  (UTC 2008-03-30)
      Language : Hindi

